<svg width="38" height="33" viewBox="0 0 38 33" fill="none" xmlns="http://www.w3.org/2000/svg">
<mask id="mask0_389_1411" style="mask-type:luminance" maskUnits="userSpaceOnUse" x="1" y="0" width="35" height="33">
<path d="M13.8989 32.5037L35.6263 18.9332L23.4483 0.0144427L1.72089 13.5849L13.8989 32.5037Z" fill="white"/>
</mask>
<g mask="url(#mask0_389_1411)">
<path d="M14.6973 16.0338C13.1452 17.3376 10.9545 16.7206 9.34719 15.3084C7.62826 13.7964 7.32468 11.916 8.49732 10.0559C9.98814 7.68902 12.3399 9.12937 13.8797 10.7775C15.2182 12.2618 16.3285 14.6628 14.6973 16.0338Z" fill="white"/>
<path d="M20.5372 12.3275C22.3961 11.5004 22.7649 9.28453 22.1548 7.24934C21.4998 5.07267 19.903 4.00019 17.6951 4.25182C14.8864 4.57085 15.206 7.28135 16.0628 9.35613C16.852 11.1829 18.5828 13.1963 20.5372 12.3275Z" fill="white"/>
<path d="M13.4866 24.0583C12.5061 25.4847 10.6452 25.4275 9.09143 24.5747C7.43103 23.6621 6.8267 22.1417 7.39732 20.3256C8.12092 18.0176 10.2708 18.7346 11.8142 19.7999C13.1693 20.7696 14.5167 22.559 13.4866 24.0583Z" fill="white"/>
<path d="M27.7973 14.8788C29.5459 14.7038 30.3704 13.0706 30.3316 11.33C30.289 9.46892 29.2016 8.23062 27.2943 7.86881C24.8684 7.40829 24.506 9.6005 24.7406 11.4333C24.9797 13.0594 25.9592 15.0628 27.7973 14.8788Z" fill="white"/>
<path d="M15.761 24.9049C14.942 23.0702 14.7408 21.069 15.1928 19.2546C15.6449 17.4403 16.7212 15.9294 18.2317 14.9887C19.637 14.1245 21.3743 13.8992 23.0856 14.3592C25.2671 14.9629 26.9569 16.6797 28.2078 18.5234C29.0621 19.7825 29.8354 21.4494 28.841 22.7471C27.9783 23.8725 26.2732 24.2701 25.026 24.8169C24.1387 25.1973 23.3312 25.7281 22.6327 26.3903C21.8025 27.1717 20.9675 28.1005 19.8109 28.3857C17.9757 28.8367 16.3894 26.6209 15.8304 25.0088C15.8016 24.9782 15.7786 24.9425 15.7628 24.9038" fill="white"/>
</g>
</svg>
