<svg width="48" height="48" viewBox="0 0 48 48" fill="none" xmlns="http://www.w3.org/2000/svg">
<path d="M40.3595 47.9424C37.0842 47.9424 33.8056 47.9962 30.5336 47.8671C30.1649 47.8527 29.5691 46.8483 29.5197 46.2563C29.2234 42.6868 29.0161 39.1066 28.8712 35.5227C28.8186 34.2133 28.5256 33.5927 27.1595 33.6501C24.3648 33.7649 21.5602 33.747 18.7622 33.6644C17.4752 33.625 16.9913 34.1129 17.0374 35.5048C17.0736 36.6348 17.0143 37.79 16.8267 38.8985C16.3198 41.9155 17.0439 44.3944 19.2626 46.3424C19.6115 46.6474 19.8387 47.1209 20.2699 47.7272C19.651 47.8599 19.3021 47.9998 18.9499 47.9998C16.2046 48.0034 13.4592 47.9532 10.7172 47.9783C9.59142 47.9891 9.03841 47.6196 8.96928 46.2563C8.61377 39.3972 8.15621 32.5416 7.80071 25.6824C7.74475 24.5811 7.4847 24.0035 6.46096 23.6196C2.88941 22.2744 0.733308 19.4618 0.130917 15.4367C-0.494517 11.2502 1.16453 7.99638 4.17648 5.50312C5.74994 4.20088 6.04949 4.31209 6.94814 6.24572C7.1226 6.61881 7.27402 7.00984 7.49128 7.35064C8.34055 8.69593 8.54135 9.7327 6.95472 10.791C5.49977 11.7632 5.25289 13.5282 5.67423 15.2753C6.11204 17.0833 7.38594 18.1739 9.20628 18.199C15.296 18.278 21.3858 18.3102 27.4755 18.2457C27.9726 18.2421 28.6803 17.4744 28.9206 16.886C30.8397 12.1973 32.6699 7.46544 34.5298 2.74797C34.8425 1.95515 35.1815 1.17309 35.6687 0C37.0677 2.6834 38.2165 5.03675 39.5069 7.29325C39.9381 8.04661 40.6392 8.74974 41.37 9.14436C43.1838 10.1237 45.0699 10.9668 46.9627 11.7596C47.9404 12.1686 48.23 12.6636 47.8186 13.7686C47.2623 15.2609 46.9232 16.8502 46.3175 18.3138C46.0904 18.8627 45.3794 19.1784 44.879 19.5802C44.8066 19.6376 44.6651 19.5874 44.5564 19.591C40.4088 19.6842 40.4417 19.6914 39.4608 24.0358C38.2001 29.6214 37.2389 35.2393 37.1237 41.0187C37.094 42.4393 37.3113 43.5191 38.2396 44.5164C39.079 45.4205 39.7867 46.4644 40.5537 47.4438C40.4845 47.6088 40.4187 47.7774 40.3496 47.9424H40.3595ZM5.3253 6.19908C2.27056 8.43046 0.911064 11.4618 1.41799 15.2968C1.90517 18.9811 3.84073 21.5963 7.2049 22.5291C8.56769 22.9057 8.87382 23.5335 8.94294 24.9147C9.282 31.5981 9.70992 38.2779 10.1411 44.9541C10.1741 45.4743 10.4703 46.4106 10.6744 46.4178C12.9688 46.5218 15.2664 46.4859 17.6463 46.4859C16.7872 45.2052 15.5297 44.1864 15.4968 43.1245C15.3783 39.6303 15.7042 36.1183 15.8688 32.4483C20.339 32.4483 24.6117 32.416 28.8811 32.5093C29.2267 32.5165 29.8127 33.3775 29.8522 33.8833C30.1484 37.6357 30.3097 41.3989 30.5796 45.1514C30.6126 45.6285 30.9944 46.468 31.2413 46.4787C33.4961 46.5828 35.7609 46.5397 38.3712 46.5397C37.8742 45.9263 37.6997 45.6214 37.4561 45.424C36.0966 44.3119 35.8596 42.877 35.8728 41.0546C35.9123 34.8913 37.0842 28.9613 38.5753 23.0744C38.9539 21.5856 38.865 19.4762 39.7505 18.7479C40.7183 17.9551 42.5649 18.4394 44.0298 18.3676C44.1943 18.3605 44.3951 18.4286 44.5169 18.3461C44.8527 18.1165 45.33 17.8977 45.4452 17.5533C45.9291 16.1076 46.2978 14.6152 46.7652 12.9506C44.8395 12.0896 43.0324 11.2574 41.2054 10.4789C39.9941 9.96229 39.0526 9.25916 38.4568 7.88159C37.7491 6.24572 36.778 4.74258 35.7707 2.90582C35.3066 4.04303 34.9774 4.84662 34.6548 5.65379C32.9497 9.92642 31.2676 14.2098 29.5164 18.4609C29.3156 18.9488 28.7363 19.5874 28.3248 19.591C21.9059 19.6519 15.4837 19.7058 9.06474 19.5623C6.95472 19.5156 5.34506 18.1488 4.55174 15.939C3.83414 13.93 4.18965 12.0251 5.45369 10.3964C6.90206 8.52374 6.93826 8.55602 5.3286 6.19549L5.3253 6.19908Z" fill="black"/>
<path d="M5.32512 6.19868C6.93479 8.55921 6.89858 8.52692 5.45021 10.3996C4.18947 12.0283 3.83067 13.9332 4.54827 15.9421C5.33829 18.152 6.95125 19.5188 9.06126 19.5654C15.4802 19.7054 21.9024 19.6551 28.3213 19.5941C28.7295 19.5906 29.3088 18.952 29.5129 18.4641C31.2641 14.213 32.9462 9.92961 34.6514 5.65698C34.974 4.8498 35.3031 4.04981 35.7673 2.909C36.7745 4.74577 37.7456 6.2489 38.4533 7.88477C39.0491 9.25876 39.9906 9.96548 41.202 10.4821C43.0289 11.257 44.8328 12.0928 46.7617 12.9538C46.2976 14.6184 45.9256 16.1107 45.4417 17.5565C45.3265 17.9009 44.8525 18.1197 44.5135 18.3493C44.395 18.4318 44.1909 18.3637 44.0263 18.3708C42.5615 18.4426 40.7148 17.9583 39.747 18.7511C38.8615 19.4758 38.9504 21.5888 38.5718 23.0775C37.0807 28.9645 35.9088 34.8909 35.8693 41.0577C35.8561 42.8802 36.0932 44.3187 37.4526 45.4272C37.6962 45.6281 37.8707 45.9295 38.3678 46.5429C35.7574 46.5429 33.496 46.586 31.2378 46.4819C30.9909 46.4712 30.6124 45.6317 30.5762 45.1546C30.3095 41.4021 30.1449 37.6389 29.8487 33.8865C29.8092 33.3806 29.2233 32.5197 28.8776 32.5125C24.6082 32.4192 20.3355 32.4515 15.8653 32.4515C15.704 36.125 15.3781 39.6335 15.4934 43.1277C15.5296 44.1931 16.7837 45.2084 17.6429 46.4891C15.2629 46.4891 12.9653 46.5286 10.6709 46.4209C10.4668 46.4102 10.1739 45.4775 10.1377 44.9573C9.70645 38.2811 9.27852 31.6013 8.93947 24.9179C8.87034 23.5403 8.56421 22.9125 7.20142 22.5322C3.83725 21.5995 1.90499 18.9807 1.41452 15.3C0.904296 11.465 2.26708 8.43365 5.32183 6.20227L5.32512 6.19868Z" fill="#DEED6E"/>
</svg>
